<?xml version="1.0" encoding="UTF-8"?>
<svg id="Lag_1" data-name="Lag 1" xmlns="http://www.w3.org/2000/svg" width="160.3382mm" height="79.0287mm" viewBox="0 0 454.5019 224.0183">
  <g>
    <path d="M107.9726,72.4788v67.8252h-7.1934l-36.8433-50.5781v50.5781h-8.7725v-67.8252h7.1934l36.8433,50.5781v-50.5781h8.7725Z" fill="#1d1d1b" stroke-width="0"/>
    <path d="M166.5693,123.3475h-32.6333l-6.7544,16.9565h-9.0356l27.8081-67.8252h8.6846l27.896,67.8252h-9.2109l-6.7544-16.9565ZM163.499,115.596l-13.2461-33.2344-13.2466,33.2344h26.4927Z" fill="#1d1d1b" stroke-width="0"/>
    <path d="M186.831,106.3914c0-19.8633,13.8599-34.688,32.7207-34.688,18.6846,0,32.5449,14.728,32.5449,34.688s-13.8604,34.688-32.5449,34.688c-18.8608,0-32.7207-14.8247-32.7207-34.688ZM243.3242,106.3914c0-15.0186-10.1758-26.0645-23.7725-26.0645-13.7725,0-23.9487,11.0459-23.9487,26.0645s10.1763,26.064,23.9487,26.064c13.5967,0,23.7725-11.0454,23.7725-26.064Z" fill="#1d1d1b" stroke-width="0"/>
    <path d="M323.5,140.304l-.0869-49.4155-22.1943,41.1792h-4.0352l-22.1943-40.8887v49.125h-8.4209v-67.8252h7.1934l25.6152,47.6714,25.2637-47.6714h7.1934l.0879,67.8252h-8.4219Z" fill="#1d1d1b" stroke-width="0"/>
    <path d="M390.5166,123.3475h-32.6328l-6.7549,16.9565h-9.0352l27.8086-67.8252h8.6846l27.8955,67.8252h-9.2109l-6.7549-16.9565ZM387.4463,115.596l-13.2461-33.2344-13.2461,33.2344h26.4922Z" fill="#1d1d1b" stroke-width="0"/>
  </g>
  <g>
    <line x1="27.0416" y1="36.6501" x2="107.6491" y2="36.6501" fill="none" stroke="#1d1d1b" stroke-miterlimit="10" stroke-width="3.8012"/>
    <line x1="27.0416" y1="35.6895" x2="27.0416" y2="161.9501" fill="none" stroke="#1d1d1b" stroke-miterlimit="10" stroke-width="3.8012"/>
  </g>
  <g>
    <line x1="1.9006" y1="1.9006" x2="82.5081" y2="1.9006" fill="none" stroke="#1d1d1b" stroke-miterlimit="10" stroke-width="3.8012"/>
    <line x1="1.9006" y1=".94" x2="1.9006" y2="127.2006" fill="none" stroke="#1d1d1b" stroke-miterlimit="10" stroke-width="3.8012"/>
  </g>
  <g>
    <g>
      <line x1="426.2606" y1="186.8198" x2="345.6649" y2="185.0435" fill="none" stroke="#1d1d1b" stroke-miterlimit="10" stroke-width="3.8012"/>
      <line x1="426.2479" y1="187.7802" x2="427.926" y2="61.5381" fill="none" stroke="#1d1d1b" stroke-miterlimit="10" stroke-width="3.8012"/>
    </g>
    <g>
      <line x1="450.9361" y1="222.1182" x2="370.3404" y2="220.3419" fill="none" stroke="#1d1d1b" stroke-miterlimit="10" stroke-width="3.8012"/>
      <line x1="450.9233" y1="223.0786" x2="452.6015" y2="96.8365" fill="none" stroke="#1d1d1b" stroke-miterlimit="10" stroke-width="3.8012"/>
    </g>
  </g>
</svg>